# xmcd
# 
# Track frame offsets:
#     150
#     19707
#     40557
#     52707
#     74982
#     91951
#     112145
#     130689
#     143758
#     164008
#     178502
#     194271
#     208878
# 
# Disc length: 2978
# 
# Revision: 2
# Processed by: cddbd v1.5.2PL0 Copyright (c) Steve Scherf et al.
# Submitted via: fre:ac v1.0.27
# 
DISCID=ba0ba00d
DTITLE=Tom Gillam - Shake My Hand
DYEAR=2004
DGENRE=Country-influenced Rock
TTITLE0=Outside the Lines
TTITLE1=Disappearing Act
TTITLE2=Take It Easy On Me
TTITLE3=Abby and Andy
TTITLE4=Stand By You
TTITLE5=Shake My Hand
TTITLE6=Your Parting Gift
TTITLE7=Please Come Home
TTITLE8=I Could Be the One
TTITLE9=One Park Lane
TTITLE10=One Step at a Time
TTITLE11=Over and Over
TTITLE12=Ali Says She's Leaving
EXTD=
EXTT0=
EXTT1=
EXTT2=
EXTT3=
EXTT4=
EXTT5=
EXTT6=
EXTT7=
EXTT8=
EXTT9=
EXTT10=
EXTT11=
EXTT12=
PLAYORDER=
